<svg width="491" height="75" viewBox="0 0 491 75" fill="none" xmlns="http://www.w3.org/2000/svg">
<mask id="mask0_63_77" style="mask-type:luminance" maskUnits="userSpaceOnUse" x="0" y="0" width="491" height="72">
<path d="M491 0H0V71.7805H491V0Z" fill="white"/>
</mask>
<g mask="url(#mask0_63_77)">
<path d="M61.2375 33.3779C64.2973 28.8583 72.8578 17.8616 65.2443 12.1676C58.6876 7.43442 44.9181 21.5984 43.534 27.2924C43.4936 27.4664 43.4957 27.6472 43.54 27.8203C43.5843 27.9934 43.6696 28.1539 43.7891 28.2889C43.978 28.4953 44.2378 28.6272 44.5196 28.66C44.801 28.6927 45.0854 28.6241 45.3189 28.4668C47.5045 26.9721 51.0379 24.5521 55.0449 22.0966C60.254 26.6518 61.2375 33.3779 61.2375 33.3779Z" fill="black"/>
<path d="M55.2968 53.1676C60.8337 52.6693 74.9673 52.3846 74.7853 43.025C74.494 35.0535 54.5683 33.3807 49.1407 35.8362C48.9778 35.9142 48.8362 36.0291 48.7284 36.1714C48.6206 36.3141 48.5497 36.4798 48.5212 36.6548C48.4647 36.9278 48.5159 37.2114 48.6647 37.4491C48.8132 37.6866 49.0482 37.8607 49.3227 37.936C51.8726 38.6832 56.0252 39.8933 60.4693 41.4237C60.0687 48.2207 55.2968 53.1676 55.2968 53.1676Z" fill="black"/>
<path d="M35.728 60.9558C39.5527 64.8706 48.5868 75.5111 55.9815 69.5324C62.2106 64.3367 51.1367 48.0375 45.7819 45.4752C45.6268 45.3876 45.451 45.3418 45.272 45.3418C45.093 45.3418 44.9169 45.3876 44.7618 45.4752C44.5073 45.605 44.3109 45.8221 44.21 46.0847C44.1092 46.3476 44.111 46.6374 44.2154 46.8985C45.1989 49.3187 46.8381 53.2332 48.3683 57.6106C42.6856 61.5253 35.728 60.9558 35.728 60.9558Z" fill="black"/>
<path d="M17.3298 50.8113C16.5649 56.2206 13.6507 69.744 23.0853 71.6656C31.0629 73.196 37.2555 54.5837 35.9804 48.8894C35.943 48.7174 35.8639 48.5565 35.7499 48.4204C35.6358 48.284 35.49 48.1767 35.3247 48.1067C35.067 47.9906 34.7736 47.9739 34.5035 48.0594C34.2338 48.1453 34.0065 48.3274 33.8676 48.5691C32.5563 50.8469 30.4073 54.5125 27.8937 58.4269C21.1911 56.5053 17.3298 50.8113 17.3298 50.8113Z" fill="black"/>
<path d="M13.9909 30.4693C9.21898 33.2451 -3.45762 39.473 0.877205 47.836C4.62918 54.918 23.3891 48.0495 27.1775 43.5301C27.2899 43.3916 27.3654 43.228 27.3971 43.0542C27.4289 42.8801 27.4161 42.7013 27.3597 42.5335C27.2904 42.2661 27.1211 42.0337 26.885 41.8821C26.6491 41.7308 26.3635 41.6709 26.0847 41.7149C23.462 42.142 19.1636 42.7826 14.4645 43.2809C11.8418 36.9463 13.9909 30.4693 13.9909 30.4693Z" fill="black"/>
<path d="M28.2278 15.2283C23.0187 13.3066 10.16 7.50579 6.1166 16.0113C2.80174 23.3067 19.9589 33.3426 25.9329 33.4494C26.1164 33.4479 26.2972 33.4054 26.4614 33.3253C26.6256 33.2451 26.7688 33.1294 26.88 32.9867C27.0557 32.76 27.1382 32.4771 27.1112 32.1938C27.0843 31.9106 26.9498 31.6477 26.7343 31.4563C24.7672 29.7126 21.5617 26.8655 18.2468 23.5914C21.6709 17.6127 28.2278 15.2283 28.2278 15.2283Z" fill="black"/>
<path d="M49.2849 16.6201C47.573 11.4599 44.2217 -1.99226 34.8965 0.249764C26.9917 2.24268 29.6509 21.6024 33.2571 26.2288C33.3738 26.363 33.5188 26.4708 33.6825 26.5445C33.846 26.6183 34.0241 26.6563 34.2044 26.6559C34.4948 26.6476 34.7717 26.5334 34.9807 26.3359C35.1897 26.1384 35.3154 25.8717 35.3337 25.5882C35.5157 23.0259 35.8435 18.791 36.3899 14.2002C43.2747 13.1325 49.2849 16.6201 49.2849 16.6201Z" fill="black"/>
<path d="M150.812 7.83673L140.402 47.4085H133.646L124.863 20.1673L115.988 47.4085H109.233L98.8221 7.83673H105.824L113.163 36.2779L121.209 7.83673H128.426L136.471 36.2779L143.811 7.83673H150.812Z" fill="black"/>
<path d="M154.004 27.6209C154.004 14.9002 159.716 6.97986 171.016 6.97986C182.317 6.97986 187.968 14.9002 187.968 27.6209C187.968 40.3414 182.225 48.2317 171.016 48.2317C159.808 48.2317 154.004 40.3414 154.004 27.6209ZM180.966 27.6209C180.966 22.6404 179.861 13.3101 171.016 13.3101C162.172 13.3101 161.005 22.6404 161.005 27.6209C161.005 32.6011 162.172 41.9013 171.016 41.9013C179.861 41.9013 180.966 32.5711 180.966 27.6209Z" fill="black"/>
<path d="M216.546 48.2161L208.654 32.0453H201.713V48.2161H194.712V8.64435H208.961C218.787 8.64435 224.223 11.6445 224.223 20.1349C224.223 26.4651 221.398 29.8553 216.116 31.2652L224.284 48.2161H216.546ZM201.713 25.6552H208.654C214.611 25.6552 217.344 24.185 217.344 20.3449C217.344 16.5047 214.457 15.0346 208.654 15.0346H201.713V25.6552Z" fill="black"/>
<path d="M231.585 7.83673H238.587V40.8981H258.608V47.4085H231.585V7.83673Z" fill="black"/>
<path d="M265.204 7.83673H276.719C288.849 7.83673 296.681 15.5771 296.681 27.7275C296.681 39.8782 288.849 47.4085 276.719 47.4085H265.204V7.83673ZM277.242 40.8981C284.92 40.8981 289.68 35.4978 289.68 27.7275C289.68 19.9573 284.705 14.347 277.242 14.347H272.206V40.8981H277.242Z" fill="black"/>
<path d="M302.521 27.5079C302.521 15.2374 309.523 7.16699 320.393 7.16699C328.132 7.16699 334.734 11.2772 336.822 19.0175L330.282 20.9976C328.962 17.2774 327.057 13.6473 320.393 13.6473C313.73 13.6473 309.523 19.4675 309.523 27.5079C309.523 35.5483 313.516 41.5786 320.393 41.5786C327.274 41.5786 329.485 37.5583 330.343 34.0481L336.822 36.0283C334.919 43.6787 328.654 48.0888 320.393 48.0888C309.523 48.0888 302.521 39.9284 302.521 27.5079Z" fill="black"/>
<path d="M342.45 27.6209C342.45 14.9002 348.162 6.97986 359.433 6.97986C370.703 6.97986 376.384 14.9002 376.384 27.6209C376.384 40.3414 370.673 48.2317 359.433 48.2317C348.192 48.2317 342.45 40.3414 342.45 27.6209ZM369.413 27.6209C369.413 22.6404 368.308 13.3101 359.433 13.3101C350.557 13.3101 349.451 22.6404 349.451 27.6209C349.451 32.6011 350.587 41.9013 359.433 41.9013C368.277 41.9013 369.413 32.5711 369.413 27.6209Z" fill="black"/>
<path d="M384.264 7.83673H391.265V47.4085H384.264V7.83673Z" fill="black"/>
<path d="M429.437 7.83673V47.4085H422.436L406.714 21.6374V47.4085H399.713V7.83673H406.714L422.436 34.538V7.83673H429.437Z" fill="black"/>
<path d="M116.422 55.0021H119.102L117.498 64.6669C117.325 65.7263 116.92 66.6581 116.285 67.4623C115.654 68.2665 114.85 68.895 113.872 69.3476C112.894 69.7955 111.806 70.0194 110.607 70.0194C109.398 70.0194 108.382 69.7955 107.559 69.3476C106.735 68.895 106.141 68.2665 105.775 67.4623C105.414 66.6581 105.32 65.7263 105.493 64.6669L107.097 55.0021H109.776L108.209 64.443C108.108 65.0594 108.154 65.6083 108.346 66.0899C108.544 66.5666 108.866 66.9423 109.314 67.2167C109.767 67.4912 110.333 67.6285 111.012 67.6285C111.691 67.6285 112.302 67.4912 112.846 67.2167C113.39 66.9423 113.836 66.5666 114.183 66.0899C114.529 65.6083 114.753 65.0594 114.854 64.443L116.422 55.0021ZM123.141 63.2945L122.072 69.7955H119.45L121.299 58.7004H123.806L123.488 60.5857H123.625C123.972 59.9645 124.458 59.4709 125.084 59.1049C125.71 58.739 126.44 58.556 127.273 58.556C128.029 58.556 128.665 58.7197 129.18 59.0471C129.695 59.3698 130.061 59.8441 130.278 60.4701C130.495 61.0914 130.528 61.845 130.379 62.731L129.195 69.7955H126.58L127.685 63.1356C127.81 62.3988 127.716 61.8209 127.403 61.402C127.095 60.9782 126.599 60.7663 125.915 60.7663C125.458 60.7663 125.036 60.8674 124.651 61.0697C124.266 61.2671 123.941 61.5536 123.676 61.9293C123.416 62.3049 123.238 62.7599 123.141 63.2945ZM136.707 70.0122C135.614 70.0122 134.704 69.7714 133.976 69.2898C133.254 68.8083 132.746 68.1317 132.452 67.2601C132.158 66.3885 132.106 65.3772 132.293 64.2263C132.481 63.0898 132.857 62.0954 133.42 61.243C133.988 60.3907 134.704 59.731 135.566 59.2638C136.432 58.7919 137.403 58.556 138.477 58.556C139.57 58.556 140.477 58.7991 141.2 59.2855C141.922 59.7671 142.43 60.4437 142.724 61.3153C143.022 62.1869 143.078 63.203 142.89 64.3635C142.707 65.4952 142.329 66.4848 141.756 67.3323C141.188 68.1799 140.473 68.8396 139.611 69.3115C138.749 69.7786 137.781 70.0122 136.707 70.0122ZM136.923 67.9174C137.53 67.9174 138.062 67.7537 138.52 67.4262C138.982 67.0939 139.36 66.6485 139.654 66.0899C139.952 65.5265 140.16 64.9005 140.275 64.2118C140.381 63.5473 140.383 62.9453 140.282 62.406C140.181 61.8618 139.965 61.4308 139.632 61.113C139.305 60.7904 138.85 60.6291 138.267 60.6291C137.66 60.6291 137.123 60.7976 136.656 61.1347C136.194 61.467 135.816 61.9148 135.522 62.4782C135.228 63.0368 135.026 63.6605 134.915 64.3491C134.805 65.0136 134.8 65.6156 134.901 66.1549C135.002 66.6943 135.219 67.1228 135.551 67.4407C135.883 67.7585 136.341 67.9174 136.923 67.9174ZM151.69 58.7004L151.35 60.723H144.792L145.131 58.7004H151.69ZM144.914 69.7955L146.944 57.653C147.06 56.9066 147.312 56.2854 147.703 55.7894C148.097 55.2934 148.577 54.9226 149.14 54.677C149.708 54.4314 150.313 54.3086 150.953 54.3086C151.41 54.3086 151.808 54.3448 152.145 54.417C152.482 54.4892 152.728 54.5542 152.882 54.612L152.037 56.6346C151.926 56.6008 151.791 56.5671 151.632 56.5334C151.478 56.4949 151.297 56.4756 151.09 56.4756C150.604 56.4756 150.24 56.5936 150 56.8296C149.759 57.0607 149.6 57.393 149.523 57.8264L147.536 69.7955H144.914ZM159.377 58.7004L159.038 60.723H152.479L152.818 58.7004H159.377ZM152.602 69.7955L154.631 57.653C154.747 56.9066 155 56.2854 155.39 55.7894C155.785 55.2934 156.264 54.9226 156.827 54.677C157.396 54.4314 158 54.3086 158.64 54.3086C159.098 54.3086 159.495 54.3448 159.832 54.417C160.169 54.4892 160.415 54.5542 160.569 54.612L159.724 56.6346C159.613 56.6008 159.478 56.5671 159.319 56.5334C159.165 56.4949 158.985 56.4756 158.778 56.4756C158.291 56.4756 157.928 56.5936 157.687 56.8296C157.446 57.0607 157.287 57.393 157.21 57.8264L155.224 69.7955H152.602ZM159.589 69.7955L161.438 58.7004H164.053L162.203 69.7955H159.589ZM163.128 57.1113C162.709 57.1113 162.362 56.9716 162.088 56.6923C161.813 56.413 161.693 56.0784 161.727 55.6883C161.76 55.2982 161.936 54.9636 162.254 54.6843C162.577 54.405 162.945 54.2653 163.359 54.2653C163.778 54.2653 164.122 54.405 164.392 54.6843C164.667 54.9636 164.787 55.2982 164.753 55.6883C164.724 56.0784 164.549 56.413 164.226 56.6923C163.908 56.9716 163.542 57.1113 163.128 57.1113ZM169.703 70.0122C168.595 70.0122 167.685 69.769 166.973 69.2826C166.26 68.7962 165.761 68.1245 165.477 67.2673C165.198 66.4053 165.152 65.4133 165.34 64.2913C165.523 63.1645 165.901 62.17 166.474 61.3081C167.052 60.4413 167.779 59.7671 168.656 59.2855C169.532 58.7991 170.512 58.556 171.595 58.556C172.496 58.556 173.264 58.7221 173.9 59.0544C174.54 59.3818 175.017 59.8465 175.33 60.4485C175.648 61.0456 175.771 61.7439 175.698 62.5432H173.192C173.182 62.0087 173.016 61.5633 172.693 61.2069C172.371 60.8458 171.899 60.6652 171.278 60.6652C170.738 60.6652 170.242 60.8096 169.79 61.0986C169.337 61.3827 168.954 61.792 168.641 62.3265C168.328 62.8611 168.111 63.5015 167.991 64.248C167.866 65.004 167.868 65.6541 167.998 66.1983C168.133 66.7376 168.376 67.1541 168.728 67.4479C169.084 67.7368 169.534 67.8813 170.079 67.8813C170.464 67.8813 170.823 67.8091 171.155 67.6646C171.487 67.5153 171.778 67.301 172.029 67.0217C172.284 66.7424 172.484 66.4029 172.628 66.0032H175.128C174.93 66.7882 174.579 67.484 174.073 68.0908C173.572 68.6927 172.951 69.1646 172.209 69.5065C171.468 69.8436 170.632 70.0122 169.703 70.0122ZM176.632 69.7955L178.481 58.7004H181.096L179.247 69.7955H176.632ZM180.171 57.1113C179.752 57.1113 179.406 56.9716 179.131 56.6923C178.857 56.413 178.736 56.0784 178.77 55.6883C178.804 55.2982 178.98 54.9636 179.297 54.6843C179.62 54.405 179.988 54.2653 180.403 54.2653C180.822 54.2653 181.166 54.405 181.435 54.6843C181.71 54.9636 181.83 55.2982 181.797 55.6883C181.768 56.0784 181.592 56.413 181.269 56.6923C180.952 56.9716 180.586 57.1113 180.171 57.1113ZM185.1 70.0194C184.396 70.0194 183.785 69.8942 183.265 69.6438C182.745 69.3886 182.362 69.0129 182.116 68.5169C181.876 68.0209 181.815 67.4094 181.936 66.6822C182.042 66.0562 182.244 65.5385 182.542 65.1292C182.846 64.7199 183.217 64.3924 183.655 64.1468C184.098 63.8964 184.579 63.7086 185.1 63.5834C185.624 63.4582 186.159 63.3667 186.703 63.3089C187.368 63.2415 187.905 63.1789 188.314 63.1211C188.728 63.0633 189.039 62.9766 189.246 62.8611C189.453 62.7407 189.578 62.5577 189.621 62.3121V62.2688C189.708 61.7246 189.621 61.3032 189.361 61.0047C189.101 60.7061 188.668 60.5568 188.061 60.5568C187.425 60.5568 186.891 60.6965 186.458 60.9758C186.024 61.2551 185.709 61.5849 185.511 61.9654L183.142 61.6187C183.441 60.9445 183.85 60.3811 184.37 59.9284C184.89 59.4709 185.49 59.129 186.169 58.9027C186.852 58.6715 187.582 58.556 188.357 58.556C188.887 58.556 189.405 58.6186 189.91 58.7438C190.421 58.869 190.871 59.076 191.261 59.365C191.656 59.6491 191.945 60.0367 192.128 60.5279C192.316 61.0191 192.347 61.6331 192.222 62.3699L190.987 69.7955H188.473L188.733 68.2713H188.646C188.439 68.5795 188.169 68.8685 187.837 69.1381C187.505 69.403 187.11 69.6173 186.653 69.781C186.195 69.9399 185.677 70.0194 185.1 70.0194ZM186.089 68.098C186.614 68.098 187.086 67.9945 187.505 67.7874C187.924 67.5755 188.268 67.2962 188.538 66.9495C188.807 66.6028 188.976 66.2247 189.043 65.8154L189.26 64.508C189.164 64.5754 189.015 64.638 188.812 64.6958C188.61 64.7536 188.384 64.8041 188.133 64.8475C187.888 64.8908 187.645 64.9294 187.404 64.9631C187.163 64.9968 186.956 65.0257 186.783 65.0497C186.383 65.1027 186.017 65.1894 185.685 65.3098C185.357 65.4302 185.085 65.5987 184.868 65.8154C184.656 66.0273 184.524 66.3018 184.471 66.6389C184.394 67.1156 184.507 67.4792 184.811 67.7296C185.114 67.9752 185.54 68.098 186.089 68.098ZM198.687 55.0021L196.231 69.7955H193.616L196.072 55.0021H198.687ZM213.883 59.1411C213.902 58.4717 213.697 57.9588 213.269 57.6025C212.845 57.2461 212.236 57.068 211.441 57.068C210.883 57.068 210.389 57.1522 209.96 57.3208C209.537 57.4845 209.195 57.7132 208.935 58.007C208.675 58.2959 208.513 58.6258 208.451 58.9966C208.398 59.3 208.424 59.5648 208.53 59.7912C208.636 60.0175 208.797 60.2101 209.014 60.369C209.236 60.5279 209.486 60.6604 209.765 60.7663C210.05 60.8722 210.338 60.9613 210.632 61.0336L211.961 61.3803C212.491 61.5103 212.997 61.6861 213.478 61.9076C213.96 62.1243 214.376 62.4036 214.728 62.7455C215.084 63.0826 215.344 63.4895 215.508 63.9662C215.672 64.443 215.698 65.0016 215.587 65.6421C215.443 66.5089 215.094 67.2721 214.54 67.9319C213.991 68.5868 213.269 69.0996 212.373 69.4704C211.482 69.8364 210.444 70.0194 209.26 70.0194C208.114 70.0194 207.146 69.8412 206.356 69.4849C205.566 69.1237 204.988 68.6012 204.622 67.9174C204.261 67.2336 204.146 66.4029 204.276 65.4254H206.912C206.859 65.9406 206.943 66.3692 207.165 66.7111C207.391 67.053 207.716 67.3082 208.14 67.4768C208.564 67.6453 209.055 67.7296 209.614 67.7296C210.196 67.7296 210.724 67.6429 211.196 67.4696C211.668 67.2914 212.053 67.0458 212.351 66.7328C212.655 66.415 212.84 66.0442 212.908 65.6204C212.975 65.24 212.92 64.9221 212.741 64.6669C212.563 64.4117 212.286 64.1998 211.911 64.0313C211.54 63.8579 211.097 63.7038 210.582 63.569L208.978 63.1356C207.818 62.8177 206.936 62.341 206.334 61.7053C205.737 61.0697 205.525 60.2221 205.699 59.1627C205.843 58.2863 206.207 57.523 206.789 56.8729C207.372 56.218 208.102 55.71 208.978 55.3488C209.854 54.9828 210.813 54.7998 211.853 54.7998C212.903 54.7998 213.791 54.9828 214.518 55.3488C215.25 55.7148 215.785 56.2252 216.122 56.8801C216.464 57.5302 216.577 58.2839 216.461 59.1411H213.883ZM225.019 65.1292L226.096 58.7004H228.71L226.861 69.7955H224.326L224.658 67.8235H224.543C224.196 68.4447 223.7 68.9527 223.055 69.3476C222.414 69.7425 221.677 69.9399 220.844 69.9399C220.117 69.9399 219.503 69.7786 219.002 69.456C218.501 69.1285 218.145 68.6542 217.933 68.033C217.726 67.407 217.695 66.6509 217.839 65.7649L219.024 58.7004H221.639L220.526 65.3603C220.416 66.0634 220.517 66.622 220.83 67.0362C221.148 67.4503 221.619 67.6574 222.246 67.6574C222.631 67.6574 223.018 67.5635 223.408 67.3757C223.803 67.1878 224.148 66.9085 224.441 66.5377C224.735 66.1621 224.928 65.6926 225.019 65.1292ZM229.666 69.7955L232.122 55.0021H234.736L233.826 60.5352H233.942C234.115 60.2655 234.349 59.979 234.643 59.6756C234.941 59.3674 235.319 59.1049 235.777 58.8882C236.234 58.6667 236.788 58.556 237.438 58.556C238.295 58.556 239.032 58.7751 239.648 59.2133C240.265 59.6467 240.705 60.2896 240.97 61.1419C241.235 61.9895 241.266 63.0296 241.064 64.2624C240.862 65.4807 240.491 66.5161 239.952 67.3684C239.412 68.2208 238.76 68.8709 237.994 69.3187C237.229 69.7666 236.41 69.9905 235.538 69.9905C234.903 69.9905 234.392 69.8846 234.007 69.6727C233.626 69.4608 233.335 69.2056 233.133 68.907C232.931 68.6036 232.784 68.3171 232.692 68.0474H232.526L232.237 69.7955H229.666ZM233.155 64.248C233.039 64.9655 233.037 65.5939 233.147 66.1332C233.263 66.6726 233.489 67.0939 233.826 67.3973C234.168 67.6959 234.618 67.8452 235.177 67.8452C235.75 67.8452 236.256 67.6911 236.694 67.3829C237.137 67.0699 237.503 66.6437 237.792 66.1043C238.081 65.5602 238.283 64.9414 238.399 64.248C238.509 63.5593 238.509 62.9477 238.399 62.4132C238.293 61.8787 238.069 61.4597 237.727 61.1564C237.39 60.853 236.932 60.7013 236.354 60.7013C235.791 60.7013 235.29 60.8482 234.852 61.1419C234.414 61.4357 234.05 61.8474 233.761 62.3771C233.472 62.9068 233.27 63.5304 233.155 64.248ZM246.061 63.2945L244.992 69.7955H242.37L244.219 58.7004H246.725L246.408 60.5857H246.545C246.892 59.9645 247.378 59.4709 248.004 59.1049C248.63 58.739 249.36 58.556 250.193 58.556C250.949 58.556 251.584 58.7197 252.1 59.0471C252.615 59.3698 252.981 59.8441 253.198 60.4701C253.414 61.0914 253.448 61.845 253.299 62.731L252.114 69.7955H249.499L250.604 63.1356C250.73 62.3988 250.636 61.8209 250.323 61.402C250.014 60.9782 249.518 60.7663 248.835 60.7663C248.377 60.7663 247.956 60.8674 247.571 61.0697C247.185 61.2671 246.86 61.5536 246.595 61.9293C246.335 62.3049 246.157 62.7599 246.061 63.2945ZM257.922 70.0194C257.218 70.0194 256.607 69.8942 256.087 69.6438C255.567 69.3886 255.184 69.0129 254.938 68.5169C254.698 68.0209 254.637 67.4094 254.758 66.6822C254.864 66.0562 255.066 65.5385 255.365 65.1292C255.668 64.7199 256.039 64.3924 256.477 64.1468C256.92 63.8964 257.401 63.7086 257.922 63.5834C258.446 63.4582 258.981 63.3667 259.525 63.3089C260.19 63.2415 260.727 63.1789 261.136 63.1211C261.55 63.0633 261.861 62.9766 262.068 62.8611C262.275 62.7407 262.4 62.5577 262.443 62.3121V62.2688C262.53 61.7246 262.443 61.3032 262.183 61.0047C261.923 60.7061 261.49 60.5568 260.883 60.5568C260.247 60.5568 259.713 60.6965 259.28 60.9758C258.846 61.2551 258.531 61.5849 258.333 61.9654L255.964 61.6187C256.263 60.9445 256.672 60.3811 257.192 59.9284C257.712 59.4709 258.312 59.129 258.991 58.9027C259.674 58.6715 260.404 58.556 261.179 58.556C261.709 58.556 262.227 58.6186 262.732 58.7438C263.243 58.869 263.693 59.076 264.083 59.365C264.478 59.6491 264.767 60.0367 264.95 60.5279C265.138 61.0191 265.169 61.6331 265.044 62.3699L263.809 69.7955H261.295L261.555 68.2713H261.468C261.261 68.5795 260.991 68.8685 260.659 69.1381C260.327 69.403 259.932 69.6173 259.475 69.781C259.017 69.9399 258.499 70.0194 257.922 70.0194ZM258.911 68.098C259.436 68.098 259.908 67.9945 260.327 67.7874C260.746 67.5755 261.09 67.2962 261.36 66.9495C261.63 66.6028 261.798 66.2247 261.866 65.8154L262.082 64.508C261.986 64.5754 261.837 64.638 261.634 64.6958C261.432 64.7536 261.206 64.8041 260.955 64.8475C260.71 64.8908 260.467 64.9294 260.226 64.9631C259.985 64.9968 259.778 65.0257 259.605 65.0497C259.205 65.1027 258.839 65.1894 258.507 65.3098C258.179 65.4302 257.907 65.5987 257.69 65.8154C257.479 66.0273 257.346 66.3018 257.293 66.6389C257.216 67.1156 257.329 67.4792 257.633 67.7296C257.936 67.9752 258.362 68.098 258.911 68.098ZM266.445 69.7955L268.294 58.7004H270.801L270.483 60.5857H270.62C270.957 59.9501 271.422 59.4541 272.014 59.0977C272.607 58.7365 273.274 58.556 274.015 58.556C274.762 58.556 275.364 58.739 275.821 59.1049C276.283 59.4661 276.567 59.9597 276.673 60.5857H276.789C277.136 59.9645 277.632 59.4709 278.277 59.1049C278.927 58.739 279.657 58.556 280.466 58.556C281.477 58.556 282.252 58.8786 282.792 59.5239C283.331 60.1692 283.497 61.1106 283.29 62.3482L282.048 69.7955H279.433L280.617 62.7527C280.723 62.0641 280.617 61.5609 280.299 61.243C279.986 60.9204 279.565 60.7591 279.035 60.7591C278.405 60.7591 277.88 60.9541 277.461 61.3442C277.047 61.7342 276.791 62.2447 276.695 62.8755L275.532 69.7955H272.968L274.167 62.6444C274.254 62.0713 274.152 61.6138 273.863 61.2719C273.579 60.93 273.16 60.7591 272.607 60.7591C272.231 60.7591 271.872 60.8554 271.53 61.048C271.188 61.2406 270.897 61.5103 270.656 61.857C270.42 62.1989 270.266 62.5962 270.194 63.0489L269.067 69.7955H266.445ZM289.576 70.0122C288.464 70.0122 287.544 69.781 286.817 69.3187C286.09 68.8516 285.579 68.1919 285.285 67.3395C284.996 66.4824 284.948 65.4735 285.141 64.313C285.329 63.1717 285.712 62.17 286.289 61.3081C286.867 60.4413 287.59 59.7671 288.456 59.2855C289.328 58.7991 290.291 58.556 291.346 58.556C292.03 58.556 292.658 58.6667 293.231 58.8882C293.804 59.1049 294.288 59.442 294.683 59.8995C295.078 60.357 295.35 60.9397 295.499 61.6475C295.648 62.3506 295.641 63.1885 295.477 64.1613L295.355 64.9631H286.253L286.535 63.2006H293.123C293.209 62.6997 293.18 62.2543 293.036 61.8642C292.892 61.4694 292.651 61.1588 292.314 60.9324C291.977 60.7061 291.555 60.5929 291.05 60.5929C290.534 60.5929 290.053 60.7254 289.605 60.9902C289.162 61.2503 288.789 61.5874 288.485 62.0015C288.182 62.4156 287.989 62.8514 287.907 63.3089L287.611 64.9992C287.505 65.6926 287.529 66.2584 287.684 66.6967C287.838 67.1349 288.107 67.4575 288.493 67.6646C288.878 67.8717 289.364 67.9752 289.952 67.9752C290.337 67.9752 290.693 67.9222 291.021 67.8163C291.348 67.7103 291.639 67.5514 291.895 67.3395C292.155 67.1228 292.371 66.858 292.545 66.545L294.936 66.8195C294.671 67.4647 294.283 68.0282 293.773 68.5097C293.262 68.9865 292.651 69.3573 291.938 69.6221C291.23 69.8822 290.443 70.0122 289.576 70.0122Z" fill="black"/>
</g>
<rect x="302" y="54" width="61" height="18" rx="6" fill="black"/>
<path d="M315.144 68H311.394L313.205 57.0909H316.923C318.006 57.0909 318.905 57.3146 319.619 57.7621C320.332 58.2095 320.833 58.8487 321.121 59.6797C321.412 60.5071 321.462 61.4943 321.27 62.6413C321.085 63.7635 320.721 64.7241 320.178 65.5231C319.635 66.3221 318.937 66.9347 318.085 67.3608C317.232 67.7869 316.252 68 315.144 68ZM313.653 66.2901H315.245C316.002 66.2901 316.661 66.1463 317.222 65.8587C317.786 65.5675 318.246 65.136 318.601 64.5643C318.96 63.989 319.208 63.2752 319.347 62.4229C319.485 61.6062 319.477 60.9315 319.32 60.3988C319.164 59.8626 318.86 59.4631 318.409 59.2003C317.962 58.9339 317.369 58.8008 316.63 58.8008H314.894L313.653 66.2901ZM325.779 68.1598C324.959 68.1598 324.28 67.9893 323.744 67.6484C323.208 67.304 322.831 66.8175 322.615 66.1889C322.402 65.5568 322.366 64.8129 322.508 63.957C322.647 63.1154 322.929 62.3768 323.355 61.7411C323.781 61.1019 324.314 60.6048 324.953 60.2496C325.596 59.891 326.306 59.7116 327.084 59.7116C327.588 59.7116 328.052 59.7933 328.474 59.9567C328.897 60.1165 329.254 60.3651 329.545 60.7024C329.836 61.0398 330.037 61.4695 330.147 61.9915C330.257 62.5099 330.252 63.1278 330.131 63.8452L330.04 64.4364H323.329L323.536 63.1367H328.394C328.458 62.7674 328.437 62.4389 328.33 62.1513C328.224 61.8601 328.046 61.631 327.798 61.4641C327.549 61.2972 327.238 61.2138 326.866 61.2138C326.486 61.2138 326.131 61.3114 325.8 61.5067C325.474 61.6985 325.198 61.9471 324.975 62.2525C324.751 62.5579 324.609 62.8793 324.548 63.2166L324.33 64.4631C324.252 64.9744 324.27 65.3917 324.383 65.7148C324.497 66.038 324.696 66.2759 324.98 66.4286C325.264 66.5813 325.623 66.6577 326.056 66.6577C326.34 66.6577 326.603 66.6186 326.844 66.5405C327.086 66.4624 327.301 66.3452 327.489 66.1889C327.681 66.0291 327.84 65.8338 327.968 65.603L329.731 65.8054C329.536 66.2812 329.25 66.6967 328.874 67.0518C328.497 67.4034 328.046 67.6768 327.521 67.8722C326.999 68.0639 326.418 68.1598 325.779 68.1598ZM331.09 68L332.453 59.8182H334.302L334.067 61.2085H334.169C334.417 60.7397 334.76 60.3739 335.197 60.1112C335.633 59.8448 336.125 59.7116 336.672 59.7116C337.222 59.7116 337.666 59.8466 338.004 60.1165C338.345 60.3828 338.554 60.7468 338.632 61.2085H338.718C338.973 60.7504 339.339 60.3864 339.815 60.1165C340.294 59.8466 340.832 59.7116 341.429 59.7116C342.175 59.7116 342.746 59.9496 343.144 60.4254C343.542 60.9013 343.664 61.5955 343.512 62.5082L342.595 68H340.667L341.541 62.8065C341.619 62.2987 341.541 61.9276 341.306 61.6932C341.075 61.4553 340.765 61.3363 340.374 61.3363C339.909 61.3363 339.522 61.4801 339.213 61.7678C338.907 62.0554 338.719 62.4318 338.648 62.897L337.791 68H335.9L336.784 62.7266C336.848 62.304 336.773 61.9666 336.56 61.7145C336.351 61.4624 336.042 61.3363 335.633 61.3363C335.356 61.3363 335.092 61.4073 334.84 61.5494C334.588 61.6914 334.373 61.8903 334.195 62.146C334.021 62.3981 333.907 62.6911 333.854 63.0249L333.023 68H331.09ZM348.136 68.1598C347.33 68.1598 346.659 67.9822 346.123 67.6271C345.59 67.272 345.216 66.7731 344.999 66.1303C344.782 65.4876 344.743 64.7418 344.882 63.8931C345.02 63.055 345.297 62.3217 345.713 61.6932C346.132 61.0646 346.659 60.5781 347.295 60.2337C347.934 59.8857 348.65 59.7116 349.441 59.7116C350.248 59.7116 350.917 59.891 351.45 60.2496C351.982 60.6048 352.357 61.1037 352.574 61.7464C352.794 62.3892 352.835 63.1385 352.696 63.9943C352.561 64.8288 352.282 65.5586 351.86 66.1836C351.441 66.8086 350.913 67.2951 350.278 67.6431C349.642 67.9876 348.928 68.1598 348.136 68.1598ZM348.296 66.6151C348.744 66.6151 349.136 66.4943 349.473 66.2528C349.814 66.0078 350.093 65.6793 350.31 65.2674C350.53 64.8519 350.683 64.3903 350.768 63.8825C350.846 63.3924 350.848 62.9485 350.773 62.5508C350.699 62.1495 350.539 61.8317 350.294 61.5973C350.052 61.3594 349.717 61.2404 349.287 61.2404C348.84 61.2404 348.444 61.3647 348.099 61.6133C347.758 61.8583 347.479 62.1886 347.263 62.604C347.046 63.016 346.897 63.4759 346.815 63.9837C346.734 64.4737 346.73 64.9176 346.805 65.3153C346.879 65.7131 347.039 66.0291 347.284 66.2635C347.529 66.4979 347.867 66.6151 348.296 66.6151Z" fill="white"/>
</svg>
