<svg width="75" height="72" viewBox="0 0 75 72" fill="none" xmlns="http://www.w3.org/2000/svg">
<path d="M61.1752 33.3779C64.2319 28.8582 72.7836 17.8616 65.1779 12.1675C58.6279 7.43436 44.8724 21.5983 43.4897 27.2923C43.4493 27.4663 43.4514 27.6472 43.4957 27.8203C43.5399 27.9933 43.6252 28.1538 43.7445 28.2888C43.9332 28.4952 44.1928 28.6272 44.4743 28.6599C44.7554 28.6927 45.0396 28.624 45.2728 28.4667C47.4562 26.9721 50.986 24.5521 54.9889 22.0965C60.1927 26.6518 61.1752 33.3779 61.1752 33.3779Z" fill="black"/>
<path d="M55.2405 53.1675C60.7717 52.6692 74.891 52.3845 74.7091 43.0249C74.4181 35.0534 54.5128 33.3806 49.0907 35.8361C48.928 35.9142 48.7865 36.029 48.6788 36.1714C48.5711 36.314 48.5003 36.4797 48.4718 36.6547C48.4153 36.9278 48.4665 37.2113 48.6151 37.4491C48.7635 37.6865 48.9982 37.8606 49.2725 37.936C51.8198 38.6831 55.9681 39.8932 60.4077 41.4236C60.0076 48.2206 55.2405 53.1675 55.2405 53.1675Z" fill="black"/>
<path d="M35.6917 60.9558C39.5125 64.8705 48.5374 75.5111 55.9245 69.5324C62.1472 64.3366 51.0847 48.0374 45.7352 45.4751C45.5803 45.3875 45.4047 45.3417 45.2259 45.3417C45.047 45.3417 44.8712 45.3875 44.7163 45.4751C44.462 45.6049 44.2658 45.8221 44.165 46.0847C44.0642 46.3476 44.066 46.6374 44.1704 46.8985C45.1529 49.3187 46.7904 53.2331 48.319 57.6105C42.6421 61.5252 35.6917 60.9558 35.6917 60.9558Z" fill="black"/>
<path d="M17.3122 50.8112C16.548 56.2205 13.6368 69.7439 23.0618 71.6656C31.0313 73.196 37.2176 54.5836 35.9438 48.8893C35.9064 48.7174 35.8274 48.5564 35.7135 48.4204C35.5995 48.284 35.4539 48.1766 35.2888 48.1066C35.0313 47.9906 34.7382 47.9738 34.4684 48.0594C34.1989 48.1452 33.9719 48.3273 33.8331 48.569C32.5231 50.8468 30.3763 54.5124 27.8653 58.4269C21.1695 56.5052 17.3122 50.8112 17.3122 50.8112Z" fill="black"/>
<path d="M13.9767 30.4693C9.20958 33.2451 -3.45411 39.473 0.876299 47.836C4.62446 54.918 23.3653 48.0495 27.1498 43.5301C27.2621 43.3916 27.3375 43.228 27.3692 43.0542C27.401 42.8801 27.3881 42.7013 27.3318 42.5335C27.2626 42.2661 27.0934 42.0337 26.8577 41.8821C26.6219 41.7308 26.3366 41.6709 26.0581 41.7149C23.4381 42.142 19.1441 42.7826 14.4497 43.2809C11.8297 36.9463 13.9767 30.4693 13.9767 30.4693Z" fill="black"/>
<path d="M28.1991 15.2283C22.9953 13.3066 10.1496 7.50579 6.11038 16.0113C2.79889 23.3067 19.9386 33.3426 25.9065 33.4494C26.0898 33.4479 26.2705 33.4054 26.4345 33.3253C26.5985 33.2451 26.7415 33.1294 26.8526 32.9867C27.0281 32.76 27.1105 32.4771 27.0836 32.1938C27.0567 31.9106 26.9224 31.6477 26.7071 31.4563C24.742 29.7126 21.5397 26.8655 18.2282 23.5914C21.6489 17.6127 28.1991 15.2283 28.1991 15.2283Z" fill="black"/>
<path d="M49.2348 16.6201C47.5247 11.4598 44.1767 -1.99233 34.8611 0.249703C26.9643 2.24262 29.6208 21.6024 33.2233 26.2288C33.3399 26.363 33.4847 26.4707 33.6483 26.5445C33.8116 26.6182 33.9896 26.6562 34.1696 26.6558C34.4597 26.6475 34.7364 26.5334 34.9451 26.3358C35.1539 26.1383 35.2795 25.8717 35.2978 25.5882C35.4796 23.0259 35.8071 18.7909 36.3529 14.2001C43.2307 13.1324 49.2348 16.6201 49.2348 16.6201Z" fill="black"/>
</svg>
