<svg width="491" height="72" viewBox="0 0 491 72" fill="none" xmlns="http://www.w3.org/2000/svg">
<g clip-path="url(#clip0_1_3)">
<mask id="mask0_1_3" style="mask-type:luminance" maskUnits="userSpaceOnUse" x="0" y="0" width="491" height="72">
<path d="M490.5 0H0V71.7805H490.5V0Z" fill="white"/>
</mask>
<g mask="url(#mask0_1_3)">
<path d="M160.33 13.9962L147.993 60.9365H139.988L129.58 28.6228L119.063 60.9365H111.058L98.7215 13.9962H107.018L115.716 47.7334L125.25 13.9962H133.802L143.335 47.7334L152.033 13.9962H160.33Z" fill="black"/>
<path d="M164.111 37.4643C164.111 22.375 170.88 12.9798 184.271 12.9798C197.663 12.9798 204.359 22.375 204.359 37.4643C204.359 52.5535 197.554 61.913 184.271 61.913C170.989 61.913 164.111 52.5535 164.111 37.4643ZM196.062 37.4643C196.062 31.5565 194.752 20.4888 184.271 20.4888C173.791 20.4888 172.408 31.5565 172.408 37.4643C172.408 43.3718 173.791 54.4039 184.271 54.4039C194.752 54.4039 196.062 43.3362 196.062 37.4643Z" fill="black"/>
<path d="M238.224 61.8945L228.872 42.7126H220.648V61.8945H212.351V14.9542H229.235C240.88 14.9542 247.321 18.513 247.321 28.5844C247.321 36.0933 243.974 40.1148 237.715 41.7873L247.394 61.8945H238.224ZM220.648 35.1326H228.872C235.931 35.1326 239.17 33.3887 239.17 28.8335C239.17 24.2782 235.749 22.5344 228.872 22.5344H220.648V35.1326Z" fill="black"/>
<path d="M256.045 13.9962H264.342V53.2138H288.068V60.9365H256.045V13.9962Z" fill="black"/>
<path d="M295.884 13.9962H309.529C323.903 13.9962 333.184 23.1778 333.184 37.5908C333.184 52.004 323.903 60.9365 309.529 60.9365H295.884V13.9962ZM310.149 53.2138C319.247 53.2138 324.887 46.808 324.887 37.5908C324.887 28.3737 318.992 21.7188 310.149 21.7188H304.182V53.2138H310.149Z" fill="black"/>
<path d="M340.105 37.3303C340.105 22.7749 348.402 13.2018 361.283 13.2018C370.453 13.2018 378.277 18.0773 380.751 27.2589L373.001 29.6077C371.437 25.1949 369.179 20.8888 361.283 20.8888C353.387 20.8888 348.402 27.7928 348.402 37.3303C348.402 46.8678 353.133 54.0211 361.283 54.0211C369.436 54.0211 372.056 49.2522 373.073 45.0883L380.751 47.4373C378.496 56.5121 371.072 61.7435 361.283 61.7435C348.402 61.7435 340.105 52.0636 340.105 37.3303Z" fill="black"/>
<path d="M387.42 37.4643C387.42 22.375 394.189 12.9798 407.546 12.9798C420.9 12.9798 427.632 22.375 427.632 37.4643C427.632 52.5535 420.864 61.913 407.546 61.913C394.224 61.913 387.42 52.5535 387.42 37.4643ZM419.372 37.4643C419.372 31.5565 418.062 20.4888 407.546 20.4888C397.027 20.4888 395.717 31.5565 395.717 37.4643C395.717 43.3718 397.063 54.4039 407.546 54.4039C418.026 54.4039 419.372 43.3362 419.372 37.4643Z" fill="black"/>
<path d="M436.97 13.9962H445.266V60.9365H436.97V13.9962Z" fill="black"/>
<path d="M490.5 13.9962V60.9365H482.203L463.573 30.3667V60.9365H455.277V13.9962H463.573L482.203 45.6694V13.9962H490.5Z" fill="black"/>
<path d="M61.1752 33.3779C64.2319 28.8582 72.7836 17.8616 65.1779 12.1675C58.6279 7.43436 44.8724 21.5983 43.4897 27.2923C43.4494 27.4663 43.4514 27.6472 43.4957 27.8203C43.54 27.9933 43.6252 28.1538 43.7445 28.2888C43.9333 28.4952 44.1929 28.6272 44.4743 28.6599C44.7555 28.6927 45.0396 28.624 45.2729 28.4667C47.4562 26.9721 50.986 24.5521 54.989 22.0965C60.1927 26.6518 61.1752 33.3779 61.1752 33.3779Z" fill="black"/>
<path d="M55.2405 53.1675C60.7718 52.6692 74.891 52.3845 74.7091 43.0249C74.4181 35.0534 54.5128 33.3806 49.0907 35.8361C48.928 35.9142 48.7865 36.029 48.6788 36.1714C48.5712 36.314 48.5003 36.4797 48.4719 36.6547C48.4153 36.9278 48.4665 37.2113 48.6151 37.4491C48.7635 37.6865 48.9983 37.8606 49.2725 37.936C51.8198 38.6831 55.9682 39.8932 60.4078 41.4236C60.0076 48.2206 55.2405 53.1675 55.2405 53.1675Z" fill="black"/>
<path d="M35.6917 60.9558C39.5125 64.8705 48.5374 75.5111 55.9245 69.5324C62.1473 64.3366 51.0847 48.0374 45.7353 45.4751C45.5803 45.3875 45.4048 45.3417 45.2259 45.3417C45.0471 45.3417 44.8712 45.3875 44.7163 45.4751C44.462 45.6049 44.2658 45.8221 44.1651 46.0847C44.0643 46.3476 44.0661 46.6374 44.1704 46.8985C45.1529 49.3187 46.7904 53.2331 48.319 57.6105C42.6421 61.5252 35.6917 60.9558 35.6917 60.9558Z" fill="black"/>
<path d="M17.3122 50.8112C16.548 56.2205 13.6368 69.7439 23.0618 71.6656C31.0313 73.196 37.2176 54.5836 35.9438 48.8893C35.9064 48.7174 35.8274 48.5564 35.7135 48.4204C35.5995 48.284 35.4539 48.1766 35.2888 48.1066C35.0313 47.9906 34.7382 47.9738 34.4684 48.0594C34.1989 48.1452 33.9719 48.3273 33.8331 48.569C32.5231 50.8468 30.3763 54.5124 27.8653 58.4269C21.1695 56.5052 17.3122 50.8112 17.3122 50.8112Z" fill="black"/>
<path d="M13.9767 30.4693C9.20961 33.2451 -3.45408 39.473 0.87633 47.836C4.62449 54.918 23.3653 48.0495 27.1499 43.5301C27.2621 43.3916 27.3375 43.228 27.3693 43.0542C27.401 42.8801 27.3882 42.7013 27.3318 42.5335C27.2626 42.2661 27.0935 42.0337 26.8577 41.8821C26.6219 41.7308 26.3367 41.6709 26.0582 41.7149C23.4381 42.142 19.1441 42.7826 14.4498 43.2809C11.8297 36.9463 13.9767 30.4693 13.9767 30.4693Z" fill="black"/>
<path d="M28.1991 15.2283C22.9953 13.3066 10.1496 7.50579 6.11038 16.0113C2.79889 23.3067 19.9386 33.3426 25.9065 33.4494C26.0898 33.4479 26.2705 33.4054 26.4345 33.3253C26.5985 33.2451 26.7415 33.1294 26.8526 32.9867C27.0281 32.76 27.1105 32.4771 27.0836 32.1938C27.0567 31.9106 26.9223 31.6477 26.7071 31.4563C24.742 29.7126 21.5397 26.8655 18.2282 23.5914C21.6489 17.6127 28.1991 15.2283 28.1991 15.2283Z" fill="black"/>
<path d="M49.2348 16.6201C47.5247 11.4598 44.1767 -1.99233 34.8611 0.249703C26.9643 2.24262 29.6208 21.6024 33.2233 26.2288C33.3399 26.363 33.4847 26.4707 33.6483 26.5445C33.8116 26.6182 33.9896 26.6562 34.1696 26.6558C34.4597 26.6475 34.7364 26.5334 34.9451 26.3358C35.1539 26.1383 35.2795 25.8717 35.2978 25.5882C35.4796 23.0259 35.8071 18.7909 36.3529 14.2001C43.2307 13.1324 49.2348 16.6201 49.2348 16.6201Z" fill="black"/>
</g>
</g>
<defs>
<clipPath id="clip0_1_3">
<rect width="490.5" height="71.7805" fill="white"/>
</clipPath>
</defs>
</svg>
